<svg id="Component_1_1" data-name="Component 1 – 1" xmlns="http://www.w3.org/2000/svg" width="1922.667" height="182.283" viewBox="0 0 1922.667 182.283">
  <path id="_2" data-name="2" d="M0,0,64.12,25.556c64.12,25.556,192.261,76.628,320.431,93.655s256.351,0,384.521-19.85C897.243,79.3,1025.424,56.95,1153.594,48.277c128.171-8.354,256.351-3.035,384.521,8.513,128.171,11.337,256.351,28.351,320.431,36.877l64.12,8.517v68.1H0Z" fill="#afe9ff" opacity="0.7"/>
  <path id="_2-2" data-name="2" d="M0,0,64.12,25.556c64.12,25.556,192.261,76.628,320.431,93.655s256.351,0,384.521-19.85C897.243,79.3,1025.424,56.95,1153.594,48.277c128.171-8.354,256.351-3.035,384.521,8.513,128.171,11.337,256.351,28.351,320.431,36.877l64.12,8.517v68.1H0Z" transform="translate(0 12)" fill="#6154b1"/>
</svg>
